ply
format ascii 1.0
comment Created by Blender 3.0.0 - www.blender.org
element vertex 499
property float x
property float y
property float z
property float nx
property float ny
property float nz
property float s
property float t
element face 479
property list uchar uint vertex_indices
end_header
0.000000 -3.112140 5.868020 0.000000 1.000000 0.000000 0.727204 0.864812
0.039549 -3.120007 5.644800 0.382672 0.923856 0.000000 0.708895 0.861505
0.000000 -3.112140 5.644800 0.000000 0.999969 0.000000 0.708895 0.864812
0.039549 -3.120007 5.868020 0.382672 0.923856 0.000000 0.727204 0.861505
0.073077 -3.142410 5.644800 0.707083 0.707083 0.000000 0.708895 0.858197
0.073077 -3.142410 5.868020 0.707083 0.707083 0.000000 0.727204 0.858197
0.095480 -3.175938 5.644800 0.923856 0.382672 0.000000 0.708895 0.854890
0.095480 -3.175938 5.868020 0.923856 0.382672 0.000000 0.727204 0.854890
0.103347 -3.215487 5.644800 1.000000 0.000000 0.000000 0.708895 0.851582
0.103347 -3.215487 5.868020 1.000000 0.000000 0.000000 0.727204 0.851582
0.095480 -3.255036 5.644800 0.923856 -0.382672 0.000000 0.708895 0.848275
0.095480 -3.255036 5.868020 0.923856 -0.382672 0.000000 0.727204 0.848275
0.073077 -3.288564 5.644800 0.707083 -0.707083 0.000000 0.708895 0.844967
0.073077 -3.288564 5.868020 0.707083 -0.707083 0.000000 0.727204 0.844967
0.039549 -3.310967 5.644800 0.382672 -0.923856 0.000000 0.708895 0.841659
0.039549 -3.310967 5.868020 0.382672 -0.923856 0.000000 0.727204 0.841660
0.000000 -3.318834 5.644800 0.195074 -0.980773 0.000000 0.708895 0.838352
0.000000 -3.318834 5.868020 -0.195074 -0.980773 0.000000 0.727204 0.891272
-0.039549 -3.310967 5.644800 -0.382672 -0.923856 0.000000 0.708895 0.887965
0.000000 -3.318834 5.644800 -0.195074 -0.980773 0.000000 0.708895 0.891272
-0.039549 -3.310967 5.868020 -0.382672 -0.923856 0.000000 0.727204 0.887965
-0.073077 -3.288564 5.644800 -0.707083 -0.707083 0.000000 0.708895 0.884657
-0.073077 -3.288564 5.868020 -0.707083 -0.707083 0.000000 0.727204 0.884657
-0.095480 -3.255036 5.644800 -0.923856 -0.382672 0.000000 0.708895 0.881350
-0.095480 -3.255036 5.868020 -0.923856 -0.382672 0.000000 0.727204 0.881350
-0.103347 -3.215487 5.644800 -1.000000 0.000000 0.000000 0.708895 0.878042
-0.103347 -3.215487 5.868020 -1.000000 0.000000 0.000000 0.727204 0.878042
-0.095480 -3.175938 5.644800 -0.923856 0.382672 0.000000 0.708895 0.874735
-0.095480 -3.175938 5.868020 -0.923856 0.382672 0.000000 0.727204 0.874735
-0.073077 -3.142410 5.644800 -0.707083 0.707083 0.000000 0.708895 0.871427
-0.033844 -3.249331 5.868020 -0.707083 -0.707083 0.000000 0.573046 0.269410
-0.044219 -3.233803 6.380278 -0.923856 -0.382672 0.000000 0.574578 0.311427
-0.044219 -3.233803 5.868020 -0.923856 -0.382672 0.000000 0.574577 0.269410
-0.073077 -3.142410 5.868020 -0.707083 0.707083 0.000000 0.727204 0.871427
-0.039549 -3.120007 5.644800 -0.382672 0.923856 0.000000 0.708895 0.868120
-0.039549 -3.120007 5.868020 -0.382672 0.923856 0.000000 0.727204 0.868120
-0.039549 -3.120007 4.928559 -0.382672 0.923856 0.000000 0.182873 0.317955
0.000000 -3.112140 3.676042 0.000000 1.000000 0.000000 0.080136 0.314648
-0.039549 -3.120007 3.676042 -0.382672 0.923856 0.000000 0.080136 0.317955
-0.073077 -3.142410 4.928559 -0.707083 0.707083 0.000000 0.182873 0.321263
-0.073077 -3.142410 3.676042 -0.707083 0.707083 0.000000 0.080136 0.321263
-0.095480 -3.175938 4.928559 -0.923856 0.382672 0.000000 0.182873 0.324571
-0.095480 -3.175938 3.676042 -0.923856 0.382672 0.000000 0.080136 0.324570
-0.103347 -3.215487 4.928559 -1.000000 0.000000 0.000000 0.182873 0.327878
-0.103347 -3.215487 3.676042 -0.999969 0.000000 0.000000 0.080136 0.327877
-0.095480 -3.255036 4.928559 -0.923856 -0.382672 0.000000 0.182873 0.331186
-0.095480 -3.255036 3.676042 -0.923856 -0.382672 0.000000 0.080136 0.331185
-0.073077 -3.288564 4.928559 -0.707083 -0.707083 0.000000 0.182873 0.334493
-0.073077 -3.288564 3.676042 -0.707083 -0.707083 0.000000 0.080136 0.334492
-0.039549 -3.310967 4.928559 -0.382672 -0.923856 0.000000 0.182873 0.337801
-0.039549 -3.310967 3.676042 -0.382672 -0.923856 0.000000 0.080136 0.337800
0.000000 -3.318834 4.928559 -0.195074 -0.980773 0.000000 0.182873 0.341108
0.000000 -3.318834 3.676042 -0.195074 -0.980773 0.000000 0.080136 0.341107
0.039549 -3.310967 4.928559 0.382672 -0.923856 0.000000 0.182873 0.291495
0.000000 -3.318834 3.676042 0.195074 -0.980773 0.000000 0.080136 0.288189
0.039549 -3.310967 3.676042 0.382672 -0.923856 0.000000 0.080136 0.291496
0.073077 -3.288564 4.928559 0.707083 -0.707083 0.000000 0.182873 0.294803
0.073077 -3.288564 3.676042 0.707083 -0.707083 0.000000 0.080136 0.294803
0.095480 -3.255036 4.928559 0.923856 -0.382672 0.000000 0.182873 0.298110
0.095480 -3.255036 3.676042 0.923856 -0.382672 0.000000 0.080136 0.298111
0.103347 -3.215487 4.928559 1.000000 0.000000 0.000000 0.182873 0.301418
0.103347 -3.215487 3.676042 0.999969 0.000000 0.000000 0.080136 0.301418
0.095480 -3.175938 4.928559 0.923856 0.382672 0.000000 0.182873 0.304725
0.095480 -3.175938 3.676042 0.923856 0.382672 0.000000 0.080136 0.304726
0.073077 -3.142410 4.928559 0.707083 0.707083 0.000000 0.182873 0.308033
0.073077 -3.142410 3.676042 0.707083 0.707083 0.000000 0.080136 0.308033
0.039549 -3.120007 4.928559 0.382672 0.923856 0.000000 0.182873 0.311340
0.039549 -3.120007 3.676042 0.382672 0.923856 0.000000 0.080136 0.311340
0.000000 -3.112140 4.928559 0.000000 1.000000 0.000000 0.182873 0.314648
-0.095480 -3.175938 4.928559 -0.000000 0.000000 -1.000000 0.095543 0.210263
-0.094027 -3.121459 4.928559 -0.000000 0.000000 -1.000000 0.092961 0.206614
-0.073077 -3.142410 4.928559 -0.000000 0.000000 -1.000000 0.092487 0.208998
0.073077 -3.288564 5.644800 0.000000 0.000000 1.000000 0.435372 0.225186
0.122853 -3.266374 5.644800 0.000000 0.000000 1.000000 0.439778 0.225941
0.095480 -3.255036 5.644800 0.000000 0.000000 1.000000 0.438428 0.223920
-0.039549 -3.120007 4.928559 0.000000 -0.000000 -1.000000 0.089180 0.208998
-0.050887 -3.092634 4.928559 0.000000 -0.000000 -1.000000 0.088706 0.206614
0.039549 -3.120007 5.421581 -0.000000 -0.000000 -1.000000 0.128496 0.210263
0.000000 -3.082512 5.421581 -0.000000 -0.000000 -1.000000 0.132855 0.211252
0.050887 -3.092634 5.421581 -0.000000 -0.000000 -1.000000 0.129846 0.208243
0.050887 -3.338340 5.644800 0.000000 -0.000000 1.000000 0.431590 0.227570
0.094028 -3.309514 5.644800 0.000000 -0.000000 1.000000 0.435846 0.227570
0.000000 -3.082512 4.928559 -0.000000 0.000000 -1.000000 0.084774 0.208243
0.000000 -3.112140 4.928559 -0.000000 0.000000 -1.000000 0.086124 0.210263
0.094028 -3.121459 5.421581 0.000000 0.000000 -1.000000 0.125914 0.206614
0.073077 -3.142410 5.421581 0.000000 0.000000 -1.000000 0.125440 0.208998
0.000000 -3.318834 5.644800 0.000000 0.000000 1.000000 0.429009 0.223920
0.039549 -3.310967 5.644800 0.000000 0.000000 1.000000 0.432065 0.225186
0.122853 -3.164599 5.421581 0.000000 0.000000 -1.000000 0.121658 0.206614
0.095480 -3.175938 5.421581 0.000000 0.000000 -1.000000 0.122132 0.208998
-0.050887 -3.338340 5.644800 0.000000 -0.000000 1.000000 0.424649 0.222932
0.000000 -3.348462 5.644800 0.000000 -0.000000 1.000000 0.427659 0.225941
0.132975 -3.215487 5.421581 0.000000 0.000000 -1.000000 0.117726 0.208243
0.103347 -3.215487 5.421581 0.000000 0.000000 -1.000000 0.119077 0.210263
-0.073077 -3.288564 5.644800 0.000000 0.000000 1.000000 0.425404 0.218526
-0.039549 -3.310967 5.644800 0.000000 0.000000 1.000000 0.426670 0.221582
0.122853 -3.266374 5.421581 0.000000 0.000000 -1.000000 0.114717 0.211252
0.095480 -3.255036 5.421581 0.000000 0.000000 -1.000000 0.116738 0.212602
-0.095480 -3.255036 5.644800 0.000000 0.000000 1.000000 0.425404 0.215218
-0.094027 -3.309514 5.644800 0.000000 0.000000 1.000000 0.423021 0.219000
0.073077 -3.288564 5.421581 -0.000000 0.000000 -1.000000 0.115472 0.215658
0.094028 -3.309514 5.421581 -0.000000 0.000000 -1.000000 0.113089 0.215184
-0.132975 -3.215487 5.644800 -0.000000 -0.000000 1.000000 0.424649 0.210812
-0.122853 -3.266374 5.644800 -0.000000 -0.000000 1.000000 0.423021 0.214744
-0.039549 -3.120007 5.421581 -0.382672 0.923856 0.000000 0.680584 0.526120
0.000000 -3.112140 5.162024 0.000000 1.000000 0.000000 0.701874 0.529428
-0.039549 -3.120007 5.162024 -0.382672 0.923856 0.000000 0.701874 0.526120
-0.073077 -3.142410 5.421581 -0.707083 0.707083 0.000000 0.680584 0.522813
-0.073077 -3.142410 5.162024 -0.707083 0.707083 0.000000 0.701874 0.522813
-0.095480 -3.175938 5.421581 -0.923856 0.382672 0.000000 0.680584 0.519505
-0.095480 -3.175938 5.162024 -0.923856 0.382672 0.000000 0.701874 0.519505
-0.103347 -3.215487 5.421581 -1.000000 0.000000 0.000000 0.680584 0.516198
-0.103347 -3.215487 5.162024 -1.000000 0.000000 0.000000 0.701874 0.516198
-0.095480 -3.255036 5.421581 -0.923856 -0.382672 0.000000 0.680584 0.512890
-0.095480 -3.255036 5.162024 -0.923856 -0.382672 0.000000 0.701874 0.512890
-0.073077 -3.288564 5.421581 -0.707083 -0.707083 0.000000 0.680584 0.509583
-0.073077 -3.288564 5.162024 -0.707083 -0.707083 0.000000 0.701874 0.509583
-0.039549 -3.310967 5.421581 -0.382672 -0.923856 0.000000 0.680584 0.506275
-0.039549 -3.310967 5.162024 -0.382672 -0.923856 0.000000 0.701874 0.506275
0.000000 -3.318834 5.421581 -0.195074 -0.980773 0.000000 0.680584 0.502968
0.000000 -3.318834 5.162024 -0.195074 -0.980773 0.000000 0.701874 0.502968
0.039549 -3.310967 5.421581 0.382672 -0.923856 0.000000 0.680584 0.552580
0.000000 -3.318834 5.162024 0.195074 -0.980773 0.000000 0.701874 0.555888
0.039549 -3.310967 5.162024 0.382672 -0.923856 0.000000 0.701874 0.552580
0.073077 -3.288564 5.421581 0.707083 -0.707083 0.000000 0.680584 0.549273
0.073077 -3.288564 5.162024 0.707083 -0.707083 0.000000 0.701874 0.549273
0.095480 -3.255036 5.421581 0.923856 -0.382672 0.000000 0.680584 0.545965
0.095480 -3.255036 5.162024 0.923856 -0.382672 0.000000 0.701874 0.545965
0.103347 -3.215487 5.421581 1.000000 0.000000 0.000000 0.680584 0.542658
0.103347 -3.215487 5.162024 1.000000 0.000000 0.000000 0.701874 0.542658
0.095480 -3.175938 5.421581 0.923856 0.382672 0.000000 0.680584 0.539350
0.095480 -3.175938 5.162024 0.923856 0.382672 0.000000 0.701874 0.539350
0.073077 -3.142410 5.421581 0.707083 0.707083 0.000000 0.680584 0.536043
0.073077 -3.142410 5.162024 0.707083 0.707083 0.000000 0.701874 0.536043
0.039549 -3.120007 5.421581 0.382672 0.923856 0.000000 0.680584 0.532735
0.039549 -3.120007 5.162024 0.382672 0.923856 0.000000 0.701874 0.532735
0.000000 -3.112140 5.421581 0.000000 0.999969 0.000000 0.680584 0.529428
0.039549 -3.120007 5.162024 -0.000000 -0.000000 1.000000 0.152029 0.224360
0.000000 -3.082512 5.162024 -0.000000 -0.000000 1.000000 0.154611 0.228009
0.000000 -3.112140 5.162024 -0.000000 -0.000000 1.000000 0.155085 0.225626
0.050887 -3.338340 5.421581 0.000000 0.000000 -1.000000 0.113089 0.219440
0.039549 -3.310967 5.421581 0.000000 0.000000 -1.000000 0.115472 0.218966
-0.095480 -3.175938 5.644800 0.000000 -0.000000 1.000000 0.429009 0.209824
-0.103347 -3.215487 5.644800 0.000000 -0.000000 1.000000 0.426670 0.212162
0.094028 -3.121459 5.162024 0.000000 0.000000 1.000000 0.147670 0.223371
0.050887 -3.092634 5.162024 0.000000 0.000000 1.000000 0.150679 0.226381
0.000000 -3.318834 5.421581 0.000000 0.000000 -1.000000 0.116738 0.222021
0.000000 -3.348462 5.421581 0.000000 0.000000 -1.000000 0.114717 0.223371
-0.094027 -3.121459 5.644800 -0.000000 0.000000 1.000000 0.431590 0.206175
-0.122853 -3.164599 5.644800 -0.000000 0.000000 1.000000 0.427659 0.207803
0.073077 -3.142410 5.162024 0.000000 0.000000 1.000000 0.149691 0.222021
0.122853 -3.164599 5.162024 0.000000 0.000000 1.000000 0.146041 0.219440
-0.050887 -3.338340 5.421581 0.000000 -0.000000 -1.000000 0.117726 0.226381
-0.039549 -3.310967 5.421581 0.000000 -0.000000 -1.000000 0.119077 0.224360
-0.039549 -3.120007 5.644800 0.000000 -0.000000 1.000000 0.435372 0.208558
-0.073077 -3.142410 5.644800 0.000000 -0.000000 1.000000 0.432065 0.208558
0.095480 -3.175938 5.162024 0.000000 0.000000 1.000000 0.148425 0.218966
0.132975 -3.215487 5.162024 0.000000 0.000000 1.000000 0.146041 0.215184
-0.073077 -3.288564 5.421581 0.000000 0.000000 -1.000000 0.122132 0.225626
-0.094027 -3.309514 5.421581 0.000000 0.000000 -1.000000 0.121658 0.228009
0.000000 -3.082512 5.644800 -0.000000 0.000000 1.000000 0.439778 0.207803
-0.050887 -3.092634 5.644800 -0.000000 0.000000 1.000000 0.435846 0.206175
0.103347 -3.215487 5.162024 0.000000 0.000000 1.000000 0.148425 0.215658
0.122853 -3.266374 5.162024 0.000000 0.000000 1.000000 0.147670 0.211252
-0.122853 -3.266374 5.421581 0.000000 -0.000000 -1.000000 0.125914 0.228009
-0.095480 -3.255036 5.421581 0.000000 -0.000000 -1.000000 0.125440 0.225626
0.073077 -3.288564 5.162024 0.000000 0.000000 1.000000 0.152029 0.210263
0.095480 -3.255036 5.162024 0.000000 0.000000 1.000000 0.149691 0.212602
-0.132975 -3.215487 5.421581 -0.000000 -0.000000 -1.000000 0.129846 0.226381
-0.103347 -3.215487 5.421581 -0.000000 -0.000000 -1.000000 0.128496 0.224360
-0.050887 -3.092634 5.162024 -0.382672 0.923856 0.000000 0.528634 0.292278
0.000000 -3.082512 4.928559 0.000000 0.999969 0.000000 0.524379 0.311427
-0.050887 -3.092634 4.928559 -0.382672 0.923856 0.000000 0.528634 0.311427
-0.094027 -3.121459 5.162024 -0.707083 0.707083 0.000000 0.532890 0.292278
-0.094027 -3.121459 4.928559 -0.707083 0.707083 0.000000 0.532890 0.311427
-0.122853 -3.164599 5.162024 -0.923856 0.382672 0.000000 0.537146 0.292278
-0.122853 -3.164599 4.928559 -0.923856 0.382672 0.000000 0.537146 0.311427
-0.132975 -3.215487 5.162024 -1.000000 0.000000 0.000000 0.541402 0.292278
-0.132975 -3.215487 4.928559 -1.000000 0.000000 0.000000 0.541402 0.311427
-0.122853 -3.266374 5.162024 -0.923856 -0.382672 0.000000 0.545657 0.292278
-0.122853 -3.266374 4.928559 -0.923856 -0.382672 0.000000 0.545657 0.311427
-0.094027 -3.309514 5.162024 -0.707083 -0.707083 0.000000 0.549913 0.292278
-0.094027 -3.309514 4.928559 -0.707083 -0.707083 0.000000 0.549913 0.311427
-0.050887 -3.338340 5.162024 -0.382672 -0.923856 0.000000 0.554169 0.292278
-0.050887 -3.338340 4.928559 -0.382672 -0.923856 0.000000 0.554169 0.311427
0.000000 -3.348462 5.162024 -0.195074 -0.980773 0.000000 0.558424 0.292278
0.000000 -3.348462 4.928559 -0.195074 -0.980773 0.000000 0.558424 0.311427
0.050887 -3.338340 5.162024 0.382672 -0.923856 0.000000 0.494589 0.292278
0.000000 -3.348462 4.928559 0.195074 -0.980773 0.000000 0.490333 0.311427
0.050887 -3.338340 4.928559 0.382672 -0.923856 0.000000 0.494589 0.311427
0.094028 -3.309514 5.162024 0.707083 -0.707083 0.000000 0.498844 0.292278
0.094028 -3.309514 4.928559 0.707083 -0.707083 0.000000 0.498844 0.311427
0.122853 -3.266374 5.162024 0.923856 -0.382672 0.000000 0.503100 0.292278
0.122853 -3.266374 4.928559 0.923856 -0.382672 0.000000 0.503100 0.311427
0.132975 -3.215487 5.162024 1.000000 0.000000 0.000000 0.507356 0.292278
0.132975 -3.215487 4.928559 1.000000 0.000000 0.000000 0.507356 0.311427
0.122853 -3.164599 5.162024 0.923856 0.382672 0.000000 0.511611 0.292278
0.122853 -3.164599 4.928559 0.923856 0.382672 0.000000 0.511611 0.311427
0.094028 -3.121459 5.162024 0.707083 0.707083 0.000000 0.515867 0.292278
0.094028 -3.121459 4.928559 0.707083 0.707083 0.000000 0.515867 0.311427
0.050887 -3.092634 5.162024 0.382672 0.923856 0.000000 0.520123 0.292278
0.050887 -3.092634 4.928559 0.382672 0.923856 0.000000 0.520123 0.311427
0.000000 -3.082512 5.162024 0.000000 1.000000 0.000000 0.524379 0.292278
-0.050887 -3.092634 5.644800 -0.382672 0.923856 0.000000 0.067875 0.375797
0.000000 -3.082512 5.421581 0.000000 0.999969 0.000000 0.049565 0.371541
-0.050887 -3.092634 5.421581 -0.382672 0.923856 0.000000 0.049565 0.375797
-0.094027 -3.121459 5.644800 -0.707083 0.707083 0.000000 0.067875 0.380053
-0.094027 -3.121459 5.421581 -0.707083 0.707083 0.000000 0.049565 0.380053
-0.122853 -3.164599 5.644800 -0.923856 0.382672 0.000000 0.067875 0.384309
-0.122853 -3.164599 5.421581 -0.923856 0.382672 0.000000 0.049565 0.384309
-0.132975 -3.215487 5.644800 -0.999969 0.000000 0.000000 0.067875 0.388564
-0.132975 -3.215487 5.421581 -0.999969 0.000000 0.000000 0.049565 0.388564
-0.122853 -3.266374 5.644800 -0.923856 -0.382672 0.000000 0.067875 0.392820
-0.122853 -3.266374 5.421581 -0.923856 -0.382672 0.000000 0.049565 0.392820
-0.094027 -3.309514 5.644800 -0.707083 -0.707083 0.000000 0.067875 0.397076
-0.094027 -3.309514 5.421581 -0.707083 -0.707083 0.000000 0.049565 0.397076
-0.050887 -3.338340 5.644800 -0.382672 -0.923856 0.000000 0.067875 0.401331
-0.050887 -3.338340 5.421581 -0.382672 -0.923856 0.000000 0.049565 0.401331
0.000000 -3.348462 5.644800 -0.195074 -0.980773 0.000000 0.067875 0.405587
0.000000 -3.348462 5.421581 -0.195074 -0.980773 0.000000 0.049565 0.405587
0.050887 -3.338340 5.644800 0.382672 -0.923856 0.000000 0.067875 0.341751
0.000000 -3.348462 5.421581 0.195074 -0.980773 0.000000 0.049565 0.337496
0.050887 -3.338340 5.421581 0.382672 -0.923856 0.000000 0.049565 0.341751
0.094028 -3.309514 5.644800 0.707083 -0.707083 0.000000 0.067875 0.346007
0.094028 -3.309514 5.421581 0.707083 -0.707083 0.000000 0.049565 0.346007
0.122853 -3.266374 5.644800 0.923856 -0.382672 0.000000 0.067875 0.350263
0.122853 -3.266374 5.421581 0.923856 -0.382672 0.000000 0.049565 0.350263
0.132975 -3.215487 5.644800 0.999969 0.000000 0.000000 0.067875 0.354518
0.132975 -3.215487 5.421581 0.999969 0.000000 0.000000 0.049565 0.354518
0.122853 -3.164599 5.644800 0.923856 0.382672 0.000000 0.067875 0.358774
0.122853 -3.164599 5.421581 0.923856 0.382672 0.000000 0.049565 0.358774
0.094028 -3.121459 5.644800 0.707083 0.707083 0.000000 0.067875 0.363030
0.094028 -3.121459 5.421581 0.707083 0.707083 0.000000 0.049565 0.363030
0.050887 -3.092634 5.644800 0.382672 0.923856 0.000000 0.067875 0.367286
0.050887 -3.092634 5.421581 0.382672 0.923856 0.000000 0.049565 0.367286
0.000000 -3.082512 5.644800 0.000000 1.000000 0.000000 0.067875 0.371541
0.103347 -3.215487 5.644800 0.000000 0.000000 1.000000 0.440767 0.221582
0.132975 -3.215487 5.644800 0.000000 0.000000 1.000000 0.442787 0.222932
-0.132975 -3.215487 4.928559 0.000000 -0.000000 -1.000000 0.099902 0.211252
-0.122853 -3.164599 4.928559 0.000000 -0.000000 -1.000000 0.096893 0.208243
0.095480 -3.175938 5.644800 0.000000 0.000000 1.000000 0.442032 0.218526
0.122853 -3.164599 5.644800 0.000000 0.000000 1.000000 0.444416 0.219000
-0.095480 -3.255036 4.928559 -0.000000 -0.000000 -1.000000 0.099147 0.215658
-0.103347 -3.215487 4.928559 -0.000000 -0.000000 -1.000000 0.097882 0.212602
0.073077 -3.142410 5.644800 0.000000 0.000000 1.000000 0.442032 0.215218
0.094028 -3.121459 5.644800 0.000000 0.000000 1.000000 0.444416 0.214744
-0.073077 -3.288564 4.928559 0.000000 -0.000000 -1.000000 0.099147 0.218966
-0.122853 -3.266374 4.928559 0.000000 -0.000000 -1.000000 0.101531 0.215184
0.039549 -3.120007 5.644800 0.000000 0.000000 1.000000 0.440767 0.212162
0.050887 -3.092634 5.644800 0.000000 0.000000 1.000000 0.442787 0.210812
-0.039549 -3.120007 5.162024 -0.000000 0.000000 1.000000 0.158393 0.225626
-0.050887 -3.092634 5.162024 -0.000000 0.000000 1.000000 0.158867 0.228009
-0.050887 -3.338340 4.928559 0.000000 0.000000 -1.000000 0.099902 0.223371
-0.094027 -3.309514 4.928559 0.000000 0.000000 -1.000000 0.101531 0.219440
0.000000 -3.112140 5.644800 -0.000000 -0.000000 1.000000 0.438428 0.209824
-0.094027 -3.121459 5.162024 0.000000 -0.000000 1.000000 0.162798 0.226381
-0.073077 -3.142410 5.162024 0.000000 -0.000000 1.000000 0.161448 0.224360
0.000000 -3.318834 4.928559 0.000000 -0.000000 -1.000000 0.095543 0.224360
-0.039549 -3.310967 4.928559 0.000000 -0.000000 -1.000000 0.097882 0.222021
-0.095480 -3.175938 5.162024 -0.000000 0.000000 1.000000 0.163787 0.222021
-0.122853 -3.164599 5.162024 -0.000000 0.000000 1.000000 0.165808 0.223371
0.050887 -3.338340 4.928559 0.000000 0.000000 -1.000000 0.092961 0.228009
0.000000 -3.348462 4.928559 0.000000 0.000000 -1.000000 0.096893 0.226381
-0.132975 -3.215487 5.162024 0.000000 -0.000000 1.000000 0.167436 0.219440
-0.103347 -3.215487 5.162024 0.000000 -0.000000 1.000000 0.165053 0.218966
0.073077 -3.288564 4.928559 0.000000 0.000000 -1.000000 0.089180 0.225626
0.039549 -3.310967 4.928559 0.000000 0.000000 -1.000000 0.092487 0.225626
-0.095480 -3.255036 5.162024 -0.000000 -0.000000 1.000000 0.165053 0.215658
-0.122853 -3.266374 5.162024 -0.000000 -0.000000 1.000000 0.167436 0.215184
0.122853 -3.266374 4.928559 -0.000000 0.000000 -1.000000 0.084774 0.226381
0.094028 -3.309514 4.928559 -0.000000 0.000000 -1.000000 0.088706 0.228009
-0.094027 -3.309514 5.162024 0.000000 0.000000 1.000000 0.165808 0.211252
-0.073077 -3.288564 5.162024 0.000000 0.000000 1.000000 0.163787 0.212602
0.103347 -3.215487 4.928559 0.000000 0.000000 -1.000000 0.083785 0.222021
0.095480 -3.255036 4.928559 0.000000 0.000000 -1.000000 0.086124 0.224360
-0.039549 -3.120007 5.421581 -0.000000 0.000000 -1.000000 0.132100 0.215658
0.000000 -3.112140 5.421581 -0.000000 0.000000 -1.000000 0.130834 0.212602
-0.050887 -3.338340 5.162024 0.000000 0.000000 1.000000 0.162798 0.208243
-0.039549 -3.310967 5.162024 0.000000 0.000000 1.000000 0.161448 0.210263
0.095480 -3.175938 4.928559 0.000000 0.000000 -1.000000 0.082519 0.218966
0.132975 -3.215487 4.928559 0.000000 0.000000 -1.000000 0.081764 0.223371
-0.094027 -3.121459 5.421581 0.000000 -0.000000 -1.000000 0.134484 0.219440
-0.050887 -3.092634 5.421581 0.000000 -0.000000 -1.000000 0.134484 0.215184
0.000000 -3.318834 5.162024 0.000000 -0.000000 1.000000 0.158393 0.208998
0.000000 -3.348462 5.162024 0.000000 -0.000000 1.000000 0.158867 0.206614
0.073077 -3.142410 4.928559 0.000000 0.000000 -1.000000 0.082519 0.215658
0.122853 -3.164599 4.928559 0.000000 0.000000 -1.000000 0.080136 0.219440
-0.095480 -3.175938 5.421581 -0.000000 0.000000 -1.000000 0.130834 0.222021
-0.073077 -3.142410 5.421581 -0.000000 0.000000 -1.000000 0.132100 0.218966
0.050887 -3.338340 5.162024 0.000000 0.000000 1.000000 0.154611 0.206614
0.039549 -3.310967 5.162024 0.000000 0.000000 1.000000 0.155085 0.208998
0.039549 -3.120007 4.928559 0.000000 0.000000 -1.000000 0.083785 0.212602
0.094028 -3.121459 4.928559 0.000000 0.000000 -1.000000 0.080136 0.215184
-0.122853 -3.164599 5.421581 0.000000 -0.000000 -1.000000 0.132855 0.223371
0.094028 -3.309514 5.162024 0.000000 -0.000000 1.000000 0.150679 0.208243
0.050887 -3.092634 4.928559 -0.000000 -0.000000 -1.000000 0.081764 0.211252
0.018316 -3.171267 5.868020 -0.000000 -0.000000 1.000000 0.833554 0.787884
0.000000 -3.112140 5.868020 -0.000000 -0.000000 1.000000 0.829610 0.784686
0.000000 -3.167624 5.868020 -0.000000 -0.000000 1.000000 0.832138 0.788470
0.033844 -3.181643 5.868020 -0.000000 0.000000 1.000000 0.835086 0.787884
0.039549 -3.120007 5.868020 -0.000000 0.000000 1.000000 0.832666 0.783421
0.095480 -3.175938 5.868020 0.000000 0.000000 1.000000 0.839029 0.784686
0.073077 -3.142410 5.868020 0.000000 0.000000 1.000000 0.835973 0.783421
0.047863 -3.215487 5.868020 -0.000000 0.000000 1.000000 0.837584 0.789554
0.044219 -3.197170 5.868020 -0.000000 0.000000 1.000000 0.836501 0.788470
0.095480 -3.255036 5.868020 0.000000 0.000000 1.000000 0.842634 0.790081
0.103347 -3.215487 5.868020 0.000000 0.000000 1.000000 0.841368 0.787025
0.033844 -3.249331 5.868020 0.000000 0.000000 1.000000 0.838170 0.792501
0.044219 -3.233803 5.868020 0.000000 0.000000 1.000000 0.838170 0.790969
0.039549 -3.310967 5.868020 0.000000 0.000000 1.000000 0.841368 0.796444
0.073077 -3.288564 5.868020 0.000000 0.000000 1.000000 0.842634 0.793388
0.000000 -3.263350 5.868020 0.000000 0.000000 1.000000 0.836501 0.794999
0.018316 -3.259706 5.868020 0.000000 0.000000 1.000000 0.837584 0.793916
-0.039549 -3.310967 5.868020 0.000000 -0.000000 1.000000 0.835973 0.800049
0.000000 -3.318834 5.868020 0.000000 -0.000000 1.000000 0.839029 0.798783
-0.033844 -3.249331 5.868020 0.000000 -0.000000 1.000000 0.833554 0.795585
-0.018316 -3.259706 5.868020 0.000000 -0.000000 1.000000 0.835086 0.795585
-0.044219 -3.233803 5.868020 0.000000 -0.000000 1.000000 0.832138 0.794999
-0.073077 -3.288564 5.868020 0.000000 -0.000000 1.000000 0.832666 0.800049
-0.047863 -3.215487 5.868020 0.000000 -0.000000 1.000000 0.831055 0.793916
-0.095480 -3.255036 5.868020 0.000000 -0.000000 1.000000 0.829610 0.798783
-0.044219 -3.197170 5.868020 0.000000 -0.000000 1.000000 0.830469 0.792501
-0.103347 -3.215487 5.868020 0.000000 -0.000000 1.000000 0.827271 0.796444
-0.033844 -3.181643 5.868020 -0.000000 -0.000000 1.000000 0.830469 0.790969
-0.095480 -3.175938 5.868020 -0.000000 -0.000000 1.000000 0.826006 0.793388
-0.039549 -3.120007 5.868020 -0.000000 0.000000 1.000000 0.827271 0.787025
-0.073077 -3.142410 5.868020 -0.000000 0.000000 1.000000 0.826006 0.790081
-0.018316 -3.171267 5.868020 -0.000000 0.000000 1.000000 0.831055 0.789554
-0.033844 -3.249331 6.380278 0.000000 0.000000 1.000000 0.980545 0.512487
0.033844 -3.249331 6.380278 0.000000 0.000000 1.000000 0.977460 0.517103
0.033844 -3.181643 6.380278 0.000000 0.000000 1.000000 0.982077 0.520188
0.044219 -3.197170 5.868020 0.923856 0.382672 0.000000 0.586832 0.269410
0.047863 -3.215487 6.380278 1.000000 0.000000 0.000000 0.588364 0.311427
0.047863 -3.215487 5.868020 1.000000 0.000000 0.000000 0.588364 0.269410
-0.047862 -3.215487 6.380278 -1.000000 0.000000 0.000000 0.576109 0.311427
-0.047863 -3.215487 5.868020 -1.000000 0.000000 0.000000 0.576109 0.269410
0.044220 -3.233803 6.380278 0.923856 -0.382672 0.000000 0.589896 0.311427
0.044219 -3.233803 5.868020 0.923856 -0.382672 0.000000 0.589896 0.269410
-0.044219 -3.197170 6.380278 -0.923856 0.382672 0.000000 0.577641 0.311427
-0.044219 -3.197170 5.868020 -0.923856 0.382672 0.000000 0.577641 0.269410
0.033844 -3.249331 6.380278 0.707083 -0.707083 0.000000 0.591428 0.311427
0.033844 -3.249331 5.868020 0.707083 -0.707083 0.000000 0.591428 0.269410
-0.033844 -3.181643 5.868020 -0.707083 0.707083 0.000000 0.579173 0.269410
-0.033844 -3.181643 6.380278 -0.707083 0.707083 0.000000 0.579173 0.311427
0.018317 -3.259706 6.380278 0.382672 -0.923856 0.000000 0.592959 0.311427
0.018316 -3.259706 5.868020 0.382672 -0.923856 0.000000 0.592959 0.269410
-0.018316 -3.171267 6.380278 -0.382672 0.923856 0.000000 0.580705 0.311427
-0.018316 -3.171267 5.868020 -0.382672 0.923856 0.000000 0.580705 0.269410
0.000000 -3.263350 6.380278 0.195074 -0.980773 0.000000 0.594491 0.311427
0.000000 -3.263350 5.868020 0.195074 -0.980773 0.000000 0.594491 0.269410
0.000000 -3.167624 5.868020 0.000000 0.999969 0.000000 0.582237 0.269410
0.018317 -3.171267 6.380278 0.382672 0.923856 0.000000 0.583769 0.311427
0.018316 -3.171267 5.868020 0.382672 0.923856 0.000000 0.583768 0.269410
0.000000 -3.167624 6.380278 0.000000 1.000000 0.000000 0.582237 0.311427
0.000000 -3.263350 5.868020 -0.195074 -0.980773 0.000000 0.569982 0.269410
-0.018316 -3.259706 6.380278 -0.382672 -0.923856 0.000000 0.571514 0.311427
-0.018316 -3.259706 5.868020 -0.382672 -0.923856 0.000000 0.571514 0.269410
0.033844 -3.181643 5.868020 0.707083 0.707083 0.000000 0.585300 0.269410
0.033844 -3.181643 6.380278 0.707083 0.707083 0.000000 0.585300 0.311427
-0.033844 -3.249331 6.380278 -0.707083 -0.707083 0.000000 0.573046 0.311427
0.044220 -3.197170 6.380278 0.923856 0.382672 0.000000 0.586832 0.311427
0.000000 -3.112140 1.171005 0.000000 0.999969 0.000000 0.194431 0.313275
0.039549 -3.120007 -0.081513 0.217353 0.520096 -0.825953 0.297168 0.316583
0.000000 -3.112140 -0.081513 0.000000 0.564898 -0.825129 0.297168 0.313275
0.000000 -3.112140 2.423523 0.000000 1.000000 0.000000 0.308726 0.313275
0.039549 -3.120007 1.171005 0.382672 0.923856 0.000000 0.411463 0.316583
0.000000 -3.112140 1.171005 0.000000 1.000000 0.000000 0.411463 0.313275
0.000000 -3.112140 3.676042 0.000000 1.000000 0.000000 0.080136 0.379127
0.039549 -3.120007 2.423523 0.382672 0.923856 0.000000 0.182873 0.382434
0.000000 -3.112140 2.423523 0.000000 1.000000 0.000000 0.182873 0.379127
0.039549 -3.120007 1.171005 0.382672 0.923856 0.000000 0.194431 0.316583
0.073077 -3.142410 -0.081513 0.398450 0.393597 -0.828394 0.297168 0.319890
0.039549 -3.120007 2.423523 0.382672 0.923856 0.000000 0.308726 0.316583
0.073077 -3.142410 1.171005 0.707083 0.707083 0.000000 0.411463 0.319890
0.039549 -3.120007 3.676042 0.382672 0.923856 0.000000 0.080136 0.382434
0.073077 -3.142410 2.423523 0.707083 0.707083 0.000000 0.182873 0.385741
0.073077 -3.142410 1.171005 0.707083 0.707083 0.000000 0.194431 0.319890
0.095480 -3.175938 -0.081513 0.514054 0.207739 -0.832179 0.297168 0.323198
0.073077 -3.142410 2.423523 0.707083 0.707083 0.000000 0.308726 0.319890
0.095480 -3.175938 1.171005 0.923856 0.382672 0.000000 0.411463 0.323198
0.073077 -3.142410 3.676042 0.707083 0.707083 0.000000 0.080136 0.385742
0.095480 -3.175938 2.423523 0.923856 0.382672 0.000000 0.182873 0.389049
0.095480 -3.175938 1.171005 0.923856 0.382672 0.000000 0.194431 0.323198
0.103347 -3.215487 -0.081513 0.547319 -0.005585 -0.836879 0.297168 0.326505
0.095480 -3.175938 2.423523 0.923856 0.382672 0.000000 0.308726 0.323198
0.103347 -3.215487 1.171005 1.000000 0.000000 0.000000 0.411463 0.326505
0.095480 -3.175938 3.676042 0.923856 0.382672 0.000000 0.080136 0.389049
0.103347 -3.215487 2.423523 1.000000 0.000000 0.000000 0.182873 0.392356
0.103347 -3.215487 1.171005 1.000000 0.000000 0.000000 0.194431 0.326505
0.095480 -3.255036 -0.081513 0.496445 -0.211676 -0.841853 0.297168 0.329812
0.103347 -3.215487 2.423523 1.000000 0.000000 0.000000 0.308726 0.326505
0.095480 -3.255036 1.171005 0.923856 -0.382672 0.000000 0.411463 0.329812
0.103347 -3.215487 3.676042 0.999969 0.000000 0.000000 0.080136 0.392357
0.095480 -3.255036 2.423523 0.923856 -0.382672 0.000000 0.182873 0.395664
0.095480 -3.255036 1.171005 0.923856 -0.382672 0.000000 0.194431 0.329813
0.073077 -3.288564 -0.081513 0.373424 -0.379925 -0.846248 0.297168 0.333120
0.095480 -3.255036 2.423523 0.923856 -0.382672 0.000000 0.308726 0.329813
0.073077 -3.288564 1.171005 0.707083 -0.707083 0.000000 0.411463 0.333120
0.095480 -3.255036 3.676042 0.923856 -0.382672 0.000000 0.080136 0.395664
0.073077 -3.288564 2.423523 0.707083 -0.707083 0.000000 0.182873 0.398971
0.073077 -3.288564 1.171005 0.707083 -0.707083 0.000000 0.194431 0.333121
0.039549 -3.310967 -0.081513 0.199561 -0.488632 -0.849330 0.297168 0.336427
0.073077 -3.288564 2.423523 0.707083 -0.707083 0.000000 0.308726 0.333121
0.039549 -3.310967 1.171005 0.382672 -0.923856 0.000000 0.411463 0.336427
0.073077 -3.288564 3.676042 0.707083 -0.707083 0.000000 0.080136 0.398972
0.039549 -3.310967 2.423523 0.382672 -0.923856 0.000000 0.182873 0.402278
0.039549 -3.310967 1.171005 0.382672 -0.923856 0.000000 0.194431 0.336428
0.000000 -3.318834 -0.081513 -0.512009 -0.451857 -0.730491 0.297168 0.339735
0.039549 -3.310967 2.423523 0.382672 -0.923856 0.000000 0.308726 0.336428
0.000000 -3.318834 1.171005 0.195074 -0.980773 0.000000 0.411463 0.339735
0.039549 -3.310967 3.676042 0.382672 -0.923856 0.000000 0.080136 0.402279
0.000000 -3.318834 2.423523 0.195074 -0.980773 0.000000 0.182873 0.405586
0.000000 -3.318834 1.171005 -0.195074 -0.980773 0.000000 0.194431 0.286815
-0.039549 -3.310967 -0.081513 -0.199561 -0.488632 -0.849330 0.297168 0.290124
0.000000 -3.318834 -0.081513 -0.104068 -0.523179 -0.845820 0.297168 0.286816
0.000000 -3.318834 2.423523 -0.195074 -0.980773 0.000000 0.308726 0.286815
-0.039549 -3.310967 1.171005 -0.382672 -0.923856 0.000000 0.411463 0.290124
0.000000 -3.318834 1.171005 -0.195074 -0.980773 0.000000 0.411463 0.286816
0.000000 -3.318834 3.676042 -0.195074 -0.980773 0.000000 0.080136 0.352666
-0.039549 -3.310967 2.423523 -0.382672 -0.923856 0.000000 0.182873 0.355975
0.000000 -3.318834 2.423523 -0.195074 -0.980773 0.000000 0.182873 0.352668
-0.039549 -3.310967 1.171005 -0.382672 -0.923856 0.000000 0.194431 0.290122
-0.073077 -3.288564 -0.081513 -0.373424 -0.379925 -0.846248 0.297168 0.293431
-0.039549 -3.310967 2.423523 -0.382672 -0.923856 0.000000 0.308726 0.290122
-0.073077 -3.288564 1.171005 -0.707083 -0.707083 0.000000 0.411463 0.293431
-0.039549 -3.310967 3.676042 -0.382672 -0.923856 0.000000 0.080136 0.355974
-0.073077 -3.288564 2.423523 -0.707083 -0.707083 0.000000 0.182873 0.359282
-0.073077 -3.288564 1.171005 -0.707083 -0.707083 0.000000 0.194431 0.293430
-0.095480 -3.255036 -0.081513 -0.496445 -0.211676 -0.841823 0.297168 0.296739
-0.073077 -3.288564 2.423523 -0.707083 -0.707083 0.000000 0.308726 0.293430
-0.095480 -3.255036 1.171005 -0.923856 -0.382672 0.000000 0.411463 0.296739
-0.073077 -3.288564 3.676042 -0.707083 -0.707083 0.000000 0.080136 0.359281
-0.095480 -3.255036 2.423523 -0.923856 -0.382672 0.000000 0.182873 0.362590
-0.095480 -3.255036 1.171005 -0.923856 -0.382672 0.000000 0.194431 0.296738
-0.103347 -3.215487 -0.081513 -0.547319 -0.005585 -0.836879 0.297168 0.300046
-0.095480 -3.255036 2.423523 -0.923856 -0.382672 0.000000 0.308726 0.296738
-0.103347 -3.215487 1.171005 -0.999969 0.000000 0.000000 0.411463 0.300046
-0.095480 -3.255036 3.676042 -0.923856 -0.382672 0.000000 0.080136 0.362589
-0.103347 -3.215487 2.423523 -0.999969 0.000000 0.000000 0.182873 0.365897
-0.103347 -3.215487 1.171005 -1.000000 0.000000 0.000000 0.194431 0.300045
-0.095480 -3.175938 -0.081513 -0.514054 0.207739 -0.832179 0.297168 0.303353
-0.103347 -3.215487 2.423523 -1.000000 0.000000 0.000000 0.308726 0.300045
-0.095480 -3.175938 1.171005 -0.923856 0.382672 0.000000 0.411463 0.303353
-0.103347 -3.215487 3.676042 -0.999969 0.000000 0.000000 0.080136 0.365896
-0.095480 -3.175938 2.423523 -0.923856 0.382672 0.000000 0.182873 0.369205
-0.095480 -3.175938 1.171005 -0.923856 0.382672 0.000000 0.194431 0.303353
-0.073077 -3.142410 -0.081513 -0.398450 0.393597 -0.828394 0.297168 0.306661
-0.095480 -3.175938 2.423523 -0.923856 0.382672 0.000000 0.308726 0.303353
-0.073077 -3.142410 1.171005 -0.707083 0.707083 0.000000 0.411463 0.306661
-0.095480 -3.175938 3.676042 -0.923856 0.382672 0.000000 0.080136 0.369204
-0.073077 -3.142410 2.423523 -0.707083 0.707083 0.000000 0.182873 0.372512
-0.073077 -3.142410 1.171005 -0.707083 0.707083 0.000000 0.194431 0.306660
-0.039549 -3.120007 -0.081513 -0.217353 0.520096 -0.825953 0.297168 0.309968
-0.073077 -3.142410 2.423523 -0.707083 0.707083 0.000000 0.308726 0.306660
-0.039549 -3.120007 1.171005 -0.382672 0.923856 0.000000 0.411463 0.309968
-0.073077 -3.142410 3.676042 -0.707083 0.707083 0.000000 0.080136 0.372511
-0.039549 -3.120007 2.423523 -0.382672 0.923856 0.000000 0.182873 0.375819
-0.039549 -3.120007 3.676042 -0.382672 0.923856 0.000000 0.080136 0.375819
0.000000 -3.318834 5.868020 0.195074 -0.980773 0.000000 0.727204 0.838352
0.000000 -3.318834 4.928559 0.195074 -0.980773 0.000000 0.182873 0.288188
0.000000 -3.318834 5.421581 0.195074 -0.980773 0.000000 0.680584 0.555888
0.000000 -3.348462 5.162024 0.195074 -0.980773 0.000000 0.490333 0.292278
0.000000 -3.348462 5.644800 0.195074 -0.980773 0.000000 0.067875 0.337496
0.018317 -3.171267 6.380278 0.000000 0.000000 1.000000 0.983492 0.519601
0.000000 -3.167624 6.380278 0.000000 0.000000 1.000000 0.984575 0.518518
-0.018316 -3.171267 6.380278 0.000000 0.000000 1.000000 0.985161 0.517103
-0.033844 -3.181643 6.380278 0.000000 0.000000 1.000000 0.985161 0.515571
-0.044219 -3.197170 6.380278 0.000000 0.000000 1.000000 0.984575 0.514156
-0.047862 -3.215487 6.380278 0.000000 0.000000 1.000000 0.983492 0.513073
-0.044219 -3.233803 6.380278 0.000000 0.000000 1.000000 0.982077 0.512487
-0.018316 -3.259706 6.380278 0.000000 0.000000 1.000000 0.979130 0.513073
0.000000 -3.263350 6.380278 0.000000 0.000000 1.000000 0.978046 0.514156
0.018317 -3.259706 6.380278 0.000000 0.000000 1.000000 0.977460 0.515571
0.044220 -3.233803 6.380278 0.000000 0.000000 1.000000 0.978046 0.518518
0.047863 -3.215487 6.380278 0.000000 0.000000 1.000000 0.979130 0.519601
0.044220 -3.197170 6.380278 0.000000 0.000000 1.000000 0.980545 0.520188
0.000000 -3.263350 6.380278 -0.195074 -0.980773 0.000000 0.569982 0.311427
0.000000 -3.318834 1.171005 0.146977 -0.989135 0.000000 0.194431 0.339736
0.000000 -3.318834 2.423523 0.195074 -0.980773 0.000000 0.308726 0.339736
0.000000 -3.318834 3.676042 0.195074 -0.980773 0.000000 0.080136 0.405587
-0.039549 -3.120007 1.171005 -0.382672 0.923856 0.000000 0.194431 0.309968
-0.039549 -3.120007 2.423523 -0.382672 0.923856 0.000000 0.308726 0.309968
0.000000 -3.226970 -0.011930 -0.448256 0.047029 -0.892636 0.297168 0.300046
0.000000 -3.226970 -0.011930 -0.448256 0.047029 -0.892636 0.297168 0.309968
0.000000 -3.226970 -0.011930 -0.448256 0.047029 -0.892636 0.297168 0.286816
0.000000 -3.226970 -0.011930 -0.448256 0.047029 -0.892636 0.297168 0.319890
0.000000 -3.226970 -0.011930 -0.448256 0.047029 -0.892636 0.297168 0.313275
0.000000 -3.226970 -0.011930 -0.448256 0.047029 -0.892636 0.297168 0.329812
0.000000 -3.226970 -0.011930 -0.448256 0.047029 -0.892636 0.297168 0.290124
0.000000 -3.226970 -0.011930 -0.448256 0.047029 -0.892636 0.297168 0.336427
0.000000 -3.226970 -0.011930 -0.448256 0.047029 -0.892636 0.297168 0.316583
0.000000 -3.226970 -0.011930 -0.448256 0.047029 -0.892636 0.297168 0.306661
0.000000 -3.226970 -0.011930 -0.448256 0.047029 -0.892636 0.297168 0.333120
0.000000 -3.226970 -0.011930 -0.448256 0.047029 -0.892636 0.297168 0.323198
0.000000 -3.226970 -0.011930 -0.448256 0.047029 -0.892636 0.297168 0.339735
0.000000 -3.226970 -0.011930 -0.448256 0.047029 -0.892636 0.297168 0.293431
0.000000 -3.226970 -0.011930 -0.448256 0.047029 -0.892636 0.297168 0.296739
0.000000 -3.226970 -0.011930 -0.448256 0.047029 -0.892636 0.297168 0.326505
0.000000 -3.226970 -0.011930 -0.448256 0.047029 -0.892636 0.297168 0.303353
3 0 1 2
3 3 4 1
3 5 6 4
3 7 8 6
3 9 10 8
3 11 12 10
3 13 14 12
3 15 16 14
3 17 18 19
3 20 21 18
3 22 23 21
3 24 25 23
3 26 27 25
3 28 29 27
3 30 31 32
3 33 34 29
3 35 2 34
3 36 37 38
3 39 38 40
3 41 40 42
3 43 42 44
3 45 44 46
3 47 46 48
3 49 48 50
3 51 50 52
3 53 54 55
3 56 55 57
3 58 57 59
3 60 59 61
3 62 61 63
3 64 63 65
3 66 65 67
3 68 67 37
3 69 70 71
3 72 73 74
3 75 70 76
3 77 78 79
3 72 80 81
3 75 82 83
3 77 84 85
3 86 80 87
3 85 88 89
3 86 90 91
3 89 92 93
3 94 90 95
3 93 96 97
3 98 99 94
3 100 96 101
3 98 102 103
3 104 105 106
3 107 106 108
3 109 108 110
3 111 110 112
3 113 112 114
3 115 114 116
3 117 116 118
3 119 118 120
3 121 122 123
3 124 123 125
3 126 125 127
3 128 127 129
3 130 129 131
3 132 131 133
3 134 133 135
3 136 135 105
3 137 138 139
3 100 140 141
3 142 102 143
3 137 144 145
3 146 140 147
3 142 148 149
3 150 151 144
3 146 152 153
3 154 148 155
3 156 157 151
3 158 152 159
3 154 160 161
3 162 163 157
3 158 164 165
3 166 163 167
3 165 168 169
3 170 171 172
3 173 172 174
3 175 174 176
3 177 176 178
3 179 178 180
3 181 180 182
3 183 182 184
3 185 184 186
3 187 188 189
3 190 189 191
3 192 191 193
3 194 193 195
3 196 195 197
3 198 197 199
3 200 199 201
3 202 201 171
3 203 204 205
3 206 205 207
3 208 207 209
3 210 209 211
3 212 211 213
3 214 213 215
3 216 215 217
3 218 217 219
3 220 221 222
3 223 222 224
3 225 224 226
3 227 226 228
3 229 228 230
3 231 230 232
3 233 232 234
3 235 234 204
3 236 73 237
3 69 238 239
3 240 237 241
3 242 238 243
3 244 241 245
3 246 247 242
3 248 245 249
3 250 138 251
3 246 252 253
3 248 160 254
3 250 255 256
3 257 252 258
3 259 255 260
3 257 261 262
3 259 263 264
3 265 261 266
3 267 263 268
3 265 269 270
3 267 271 272
3 273 269 274
3 275 78 276
3 272 277 278
3 279 280 273
3 275 281 282
3 283 277 284
3 285 286 279
3 287 281 288
3 283 289 290
3 291 292 285
3 287 168 293
3 166 289 294
3 291 82 295
3 296 297 298
3 299 300 296
3 299 301 302
3 303 301 304
3 303 305 306
3 307 305 308
3 307 309 310
3 311 309 312
3 311 313 314
3 315 313 316
3 317 318 315
3 319 320 317
3 321 322 319
3 323 324 321
3 323 325 326
3 327 297 325
3 328 329 330
3 331 332 333
3 32 334 335
3 333 336 337
3 335 338 339
3 337 340 341
3 342 338 343
3 341 344 345
3 342 346 347
3 345 348 349
3 350 351 352
3 350 346 353
3 354 355 356
3 357 351 358
3 356 359 30
3 357 360 331
3 361 362 363
3 364 365 366
3 367 368 369
3 370 371 362
3 372 373 365
3 374 375 368
3 376 377 371
3 378 379 373
3 380 381 375
3 382 383 377
3 384 385 379
3 386 387 381
3 388 389 383
3 390 391 385
3 392 393 387
3 394 395 389
3 396 397 391
3 398 399 393
3 400 401 395
3 402 403 397
3 404 405 399
3 406 407 401
3 408 409 403
3 410 411 405
3 412 413 414
3 415 416 417
3 418 419 420
3 421 422 413
3 423 424 416
3 425 426 419
3 427 428 422
3 429 430 424
3 431 432 426
3 433 434 428
3 435 436 430
3 437 438 432
3 439 440 434
3 441 442 436
3 443 444 438
3 445 446 440
3 447 448 442
3 449 450 444
3 451 452 446
3 453 454 448
3 455 456 450
3 452 361 363
3 454 364 366
3 457 369 456
3 0 3 1
3 3 5 4
3 5 7 6
3 7 9 8
3 9 11 10
3 11 13 12
3 13 15 14
3 15 458 16
3 17 20 18
3 20 22 21
3 22 24 23
3 24 26 25
3 26 28 27
3 28 33 29
3 30 359 31
3 33 35 34
3 35 0 2
3 36 68 37
3 39 36 38
3 41 39 40
3 43 41 42
3 45 43 44
3 47 45 46
3 49 47 48
3 51 49 50
3 53 459 54
3 56 53 55
3 58 56 57
3 60 58 59
3 62 60 61
3 64 62 63
3 66 64 65
3 68 66 67
3 69 239 70
3 72 81 73
3 75 71 70
3 77 276 78
3 72 87 80
3 75 76 82
3 77 79 84
3 86 91 80
3 85 84 88
3 86 95 90
3 89 88 92
3 94 99 90
3 93 92 96
3 98 103 99
3 100 97 96
3 98 143 102
3 104 136 105
3 107 104 106
3 109 107 108
3 111 109 110
3 113 111 112
3 115 113 114
3 117 115 116
3 119 117 118
3 121 460 122
3 124 121 123
3 126 124 125
3 128 126 127
3 130 128 129
3 132 130 131
3 134 132 133
3 136 134 135
3 137 145 138
3 100 101 140
3 142 149 102
3 137 150 144
3 146 141 140
3 142 155 148
3 150 156 151
3 146 147 152
3 154 161 148
3 156 162 157
3 158 153 152
3 154 254 160
3 162 167 163
3 158 159 164
3 166 294 163
3 165 164 168
3 170 202 171
3 173 170 172
3 175 173 174
3 177 175 176
3 179 177 178
3 181 179 180
3 183 181 182
3 185 183 184
3 187 461 188
3 190 187 189
3 192 190 191
3 194 192 193
3 196 194 195
3 198 196 197
3 200 198 199
3 202 200 201
3 203 235 204
3 206 203 205
3 208 206 207
3 210 208 209
3 212 210 211
3 214 212 213
3 216 214 215
3 218 216 217
3 220 462 221
3 223 220 222
3 225 223 224
3 227 225 226
3 229 227 228
3 231 229 230
3 233 231 232
3 235 233 234
3 236 74 73
3 69 243 238
3 240 236 237
3 242 247 238
3 244 240 241
3 246 253 247
3 248 244 245
3 250 139 138
3 246 258 252
3 248 249 160
3 250 251 255
3 257 262 252
3 259 256 255
3 257 266 261
3 259 260 263
3 265 270 261
3 267 264 263
3 265 274 269
3 267 268 271
3 273 280 269
3 275 282 78
3 272 271 277
3 279 286 280
3 275 288 281
3 283 278 277
3 285 292 286
3 287 293 281
3 283 284 289
3 291 295 292
3 287 169 168
3 166 290 289
3 291 83 82
3 296 300 297
3 299 302 300
3 299 304 301
3 303 306 301
3 303 308 305
3 307 310 305
3 307 312 309
3 311 314 309
3 311 316 313
3 315 318 313
3 317 320 318
3 319 322 320
3 321 324 322
3 323 326 324
3 323 327 325
3 327 298 297
3 330 463 464
3 464 465 466
3 466 467 468
3 468 469 466
3 469 328 466
3 328 470 329
3 470 471 329
3 471 472 329
3 329 473 330
3 473 474 330
3 474 475 330
3 330 464 328
3 464 466 328
3 331 360 332
3 32 31 334
3 333 332 336
3 335 334 338
3 337 336 340
3 342 339 338
3 341 340 344
3 342 343 346
3 345 344 348
3 350 353 351
3 350 347 346
3 354 476 355
3 357 352 351
3 356 355 359
3 357 358 360
3 361 370 362
3 364 372 365
3 367 374 368
3 370 376 371
3 372 378 373
3 374 380 375
3 376 382 377
3 378 384 379
3 380 386 381
3 382 388 383
3 384 390 385
3 386 392 387
3 388 394 389
3 390 396 391
3 392 398 393
3 394 400 395
3 396 402 397
3 398 404 399
3 400 406 401
3 402 408 403
3 404 410 405
3 406 477 407
3 408 478 409
3 410 479 411
3 412 421 413
3 415 423 416
3 418 425 419
3 421 427 422
3 423 429 424
3 425 431 426
3 427 433 428
3 429 435 430
3 431 437 432
3 433 439 434
3 435 441 436
3 437 443 438
3 439 445 440
3 441 447 442
3 443 449 444
3 445 451 446
3 447 453 448
3 449 455 450
3 451 480 452
3 453 481 454
3 455 457 456
3 452 480 361
3 454 481 364
3 457 367 369
3 434 440 482
3 452 363 483
3 414 413 484
3 371 377 485
3 363 362 486
3 389 395 487
3 413 422 488
3 401 407 489
3 362 371 490
3 446 452 491
3 395 401 492
3 377 383 493
3 407 477 494
3 422 428 495
3 428 434 496
3 383 389 497
3 440 446 498
