ply
format ascii 1.0
comment Exported by Aspose.3D 22.10
element vertex 96
property float x
property float y
property float z
property float nx
property float ny
property float nz
property float u
property float v
element face 60
property list uchar int vertex_index
end_header
1.9025800228118896 0.02418000064790249 -0.02418000064790249 -0.12278357148170471 0.9918488264083862 -0.034060992300510406 0.5880500078201294 -0.596809983253479
1.9025800228118896 0.02418000064790249 0.02418000064790249 -0.12308333069086075 0.9918168187141418 -0.03391091525554657 0.5879999995231628 -0.6302899718284607
1.9319700002670288 0.029659999534487724 0.11708000302314758 0.006160109303891659 0.9998977780342102 -0.012910229153931141 0.5672100186347961 -0.6945599913597107
1.9319700002670288 0.029659999534487724 -0.11708000302314758 0.006230107508599758 0.999897301197052 -0.012910223565995693 0.5674399733543396 -0.532480001449585
0.6144199967384338 -0.020999999716877937 0.013500000350177288 0.008849993348121643 -0.040279969573020935 0.9991492629051208 0.45871999859809875 -0.48249000310897827
0.6144199967384338 0.013500000350177288 0.020999999716877937 0.00882001779973507 -0.04022008180618286 0.9991520047187805 0.4593900144100189 -0.4580099880695343
-0.029659999534487724 0.027739999815821648 0.027739999815821648 0.015720348805189133 -0.08304183930158615 0.9964221119880676 0.9057599902153015 -0.4678800106048584
-0.029659999534487724 -0.027739999815821648 0.027739999815821648 0.015720348805189133 -0.08304183930158615 0.9964221119880676 0.9040799736976624 -0.5060799717903137
-0.029659999534487724 -0.027739999815821648 0.027739999815821648 -1 0 0 0.6418499946594238 -0.01278000045567751
-0.029659999534487724 0.027739999815821648 0.027739999815821648 -1 0 0 0.6418499946594238 -0.05119000002741814
-0.029659999534487724 0.027739999815821648 -0.027739999815821648 -1 0 0 0.60343998670578 -0.05119000002741814
-0.029659999534487724 -0.027739999815821648 -0.027739999815821648 -1 0 0 0.60343998670578 -0.01278000045567751
1.2584400177001953 -0.01988999918103218 -0.012179999612271786 -0.0051300255581736565 -0.04962024837732315 -0.9987549781799316 0.4589900076389313 -0.759850025177002
1.2582999467849731 0.012179999612271786 -0.01988999918103218 -0.005070109851658344 -0.04929107055068016 -0.9987716674804688 0.4588199853897095 -0.7826799750328064
1.9025800228118896 0.02418000064790249 -0.02418000064790249 -0.01199011504650116 -0.09537092596292496 -0.9953696131706238 0.01278000045567751 -0.787060022354126
1.9025800228118896 -0.02418000064790249 -0.02418000064790249 -0.01199011504650116 -0.09537092596292496 -0.9953696131706238 0.01307000033557415 -0.7535799741744995
0.6144199967384338 -0.020999999716877937 0.013500000350177288 0.00882001779973507 -0.9991520047187805 -0.04022008180618286 0.45882999897003174 -0.384550005197525
-0.029659999534487724 -0.027739999815821648 0.027739999815821648 0.015720348805189133 -0.9964221119880676 -0.08304183930158615 0.9037299752235413 -0.35304000973701477
-0.029659999534487724 -0.027739999815821648 -0.027739999815821648 0.015720348805189133 -0.9964221119880676 -0.08304183930158615 0.9056000113487244 -0.3914099931716919
0.6144199967384338 -0.013500000350177288 -0.020999999716877937 0.008849993348121643 -0.9991492629051208 -0.040279969573020935 0.4594399929046631 -0.40900999307632446
1.2585500478744507 0.01988999918103218 0.012179999612271786 -0.005130026023834944 0.9987550973892212 -0.04962025210261345 0.4589099884033203 -0.8055199980735779
1.9025800228118896 0.02418000064790249 0.02418000064790249 -0.12308333069086075 0.9918168187141418 -0.03391091525554657 0.013279999606311321 -0.8205400109291077
1.9025800228118896 0.02418000064790249 -0.02418000064790249 -0.12278357148170471 0.9918488264083862 -0.034060992300510406 0.01278000045567751 -0.787060022354126
1.2582999467849731 0.012179999612271786 -0.01988999918103218 -0.005070117302238941 0.9987730979919434 -0.04926114156842232 0.4588199853897095 -0.7826799750328064
2.6911098957061768 -0.016300000250339508 -0.11653999984264374 0.6014735102653503 -0.03030068427324295 -0.7983180284500122 0.037709999829530716 -0.8921700119972229
2.6911098957061768 0.007410000078380108 -0.11744000017642975 0.6014735102653503 -0.03030068427324295 -0.7983180284500122 0.03781000152230263 -0.9085900187492371
2.719909906387329 0.0024999999441206455 -0.09555000066757202 0.6014735102653503 -0.03030068427324295 -0.7983180284500122 0.01283000037074089 -0.904770016670227
2.719909906387329 -0.009739999659359455 -0.09509000182151794 0.6014735102653503 -0.03030068427324295 -0.7983180284500122 0.01278000045567751 -0.8963000178337097
1.9025800228118896 -0.02418000064790249 0.02418000064790249 -0.12278344482183456 -0.9918477535247803 0.034090954810380936 0.5676199793815613 -0.06763999909162521
1.9025800228118896 -0.02418000064790249 -0.02418000064790249 -0.12308319658041 -0.9918157458305359 0.0339408814907074 0.5778800249099731 -0.09950999915599823
1.9319700002670288 -0.029659999534487724 -0.11708000302314758 -0.027800559997558594 -0.9995301365852356 0.012910259887576103 0.5778800249099731 -0.1670600026845932
1.9319700002670288 -0.029659999534487724 0.11708000302314758 -0.027740605175495148 -0.9995318055152893 0.01291028130799532 0.528219997882843 -0.01278000045567751
1.9025800228118896 0.02418000064790249 0.02418000064790249 -0.953408420085907 0 0.30168265104293823 0.6306599974632263 -0.9499499797821045
1.9025800228118896 -0.02418000064790249 0.02418000064790249 -0.953408420085907 0 0.30168265104293823 0.6306599974632263 -0.983430027961731
1.9319700002670288 -0.029659999534487724 0.11708000302314758 -0.953408420085907 0 0.30168265104293823 0.5632200241088867 -0.9872199892997742
1.9319700002670288 0.029659999534487724 0.11708000302314758 -0.953408420085907 0 0.30168265104293823 0.5632200241088867 -0.9461600184440613
1.9025800228118896 -0.02418000064790249 -0.02418000064790249 -0.953408420085907 0 -0.30168265104293823 0.6305800080299377 -0.8828999996185303
1.9025800228118896 0.02418000064790249 -0.02418000064790249 -0.953408420085907 0 -0.30168265104293823 0.6308000087738037 -0.916379988193512
1.9319700002670288 0.029659999534487724 -0.11708000302314758 -0.953408420085907 0 -0.30168265104293823 0.5633800029754639 -0.9206100106239319
1.9319700002670288 -0.029659999534487724 -0.11708000302314758 -0.953408420085907 0 -0.30168265104293823 0.5631200075149536 -0.8795400261878967
2.719909906387329 -0.009739999659359455 -0.09509000182151794 1 0 0 0.01278000045567751 -0.5467399954795837
2.719909906387329 0.0024999999441206455 -0.09555000066757202 1 0 0 0.021250000223517418 -0.5467399954795837
2.719909906387329 0.009739999659359455 0.09509000182151794 1 0 0 0.021250000223517418 -0.6787999868392944
2.719909906387329 -0.0024999999441206455 0.09555000066757202 1 0 0 0.01278000045567751 -0.6787999868392944
2.6911098957061768 0.007410000078380108 -0.11744000017642975 0.07520090788602829 0.9965319633483887 -0.03562042862176895 0.04157999902963638 -0.5317299962043762
2.6911098957061768 0.016300000250339508 0.11653999984264374 0.07523074746131897 0.9965298175811768 -0.03562035411596298 0.04157999902963638 -0.693809986114502
2.719909906387329 0.009739999659359455 0.09509000182151794 0.19553230702877045 0.9799915552139282 -0.0372004397213459 0.021250000223517418 -0.6787999868392944
2.719909906387329 0.0024999999441206455 -0.09555000066757202 0.19553230702877045 0.9799915552139282 -0.0372004397213459 0.021250000223517418 -0.5467399954795837
2.6911098957061768 -0.007410000078380108 0.11744000017642975 0.1006527692079544 -0.994287371635437 0.03552097827196121 0.02751999907195568 -0.17321999371051788
2.6911098957061768 -0.016300000250339508 -0.11653999984264374 0.10062307119369507 -0.9942903518676758 0.03552108258008957 0.07724999636411667 -0.3274900019168854
2.719909906387329 -0.009739999659359455 -0.09509000182151794 0.19553230702877045 -0.9799915552139282 0.0372004397213459 0.053289998322725296 -0.31944000720977783
2.719909906387329 -0.0024999999441206455 0.09555000066757202 0.19553230702877045 -0.9799915552139282 0.0372004397213459 0.01278000045567751 -0.19374999403953552
2.6911098957061768 0.016300000250339508 0.11653999984264374 0.6014735102653503 0.03030068427324295 0.7983180284500122 0.03773000091314316 -0.9554100036621094
2.6911098957061768 -0.007410000078380108 0.11744000017642975 0.6014735102653503 0.03030068427324295 0.7983180284500122 0.03773000091314316 -0.9718300104141235
2.719909906387329 -0.0024999999441206455 0.09555000066757202 0.6014735102653503 0.03030068427324295 0.7983180284500122 0.01278000045567751 -0.9678599834442139
2.719909906387329 0.009739999659359455 0.09509000182151794 0.6014735102653503 0.03030068427324295 0.7983180284500122 0.01278000045567751 -0.9593899846076965
2.311539888381958 0.01664000004529953 0.1163799986243248 -0.0001800012105377391 0.022950151935219765 0.9997366666793823 0.3004699945449829 -0.9551699757575989
2.311539888381958 -0.024860000237822533 0.11766000092029572 -0.0001800015743356198 0.022860199213027954 0.9997386932373047 0.3004699945449829 -0.9839100241661072
2.6911098957061768 -0.007410000078380108 0.11744000017642975 -0.0006700141821056604 0.033420708030462265 0.9994412064552307 0.03773000091314316 -0.9718300104141235
2.6911098957061768 0.016300000250339508 0.11653999984264374 -0.0006700141821056604 0.033420708030462265 0.9994412064552307 0.03773000091314316 -0.9554100036621094
2.311539888381958 -0.024860000237822533 0.11766000092029572 0.023440590128302574 -0.9994151592254639 0.02490062639117241 0.2779499888420105 -0.09283000230789185
2.311539888381958 -0.03209000080823898 -0.1163799986243248 0.023380622267723083 -0.9994165897369385 0.024900661781430244 0.32763001322746277 -0.24710999429225922
2.311539888381958 0.0094200000166893 -0.11766000092029572 0.023410605266690254 0.9994158744812012 -0.0249006450176239 0.3043299913406372 -0.5316299796104431
2.311539888381958 0.01664000004529953 0.1163799986243248 0.023440590128302574 0.9994151592254639 -0.02490062639117241 0.30432000756263733 -0.6937100291252136
2.311539888381958 -0.03209000080823898 -0.1163799986243248 0.00021000139531679451 -0.022950151935219765 -0.9997366666793823 0.3003700077533722 -0.8795400261878967
2.311539888381958 0.0094200000166893 -0.11766000092029572 0.00021000167180318385 -0.022890182211995125 -0.9997379779815674 0.30055999755859375 -0.9082900285720825
2.6911098957061768 0.007410000078380108 -0.11744000017642975 0.0006700141821056604 -0.033420708030462265 -0.9994412064552307 0.03781000152230263 -0.9085900187492371
2.6911098957061768 -0.016300000250339508 -0.11653999984264374 0.0006700141821056604 -0.033420708030462265 -0.9994412064552307 0.037709999829530716 -0.8921700119972229
-0.029659999534487724 0.027739999815821648 0.027739999815821648 0.015720348805189133 0.9964221119880676 0.08304183930158615 0.9057599902153015 -0.4678800106048584
0.6144199967384338 0.013500000350177288 0.020999999716877937 0.008849993348121643 0.9991492629051208 0.040279969573020935 0.4593900144100189 -0.4580099880695343
0.6144199967384338 0.020999999716877937 -0.013500000350177288 0.00882001779973507 0.9991520047187805 0.04022008180618286 0.45963001251220703 -0.4335100054740906
-0.029659999534487724 0.027739999815821648 -0.027739999815821648 0.015720348805189133 0.9964221119880676 0.08304183930158615 0.9062700271606445 -0.4296500086784363
1.2585500478744507 0.01988999918103218 0.012179999612271786 -0.005130026023834944 0.9987550973892212 -0.04962025210261345 0.013009999878704548 -0.44971999526023865
1.2582999467849731 0.012179999612271786 -0.01988999918103218 -0.005070117302238941 0.9987730979919434 -0.04926114156842232 0.01322999969124794 -0.42697998881340027
1.9025800228118896 -0.02418000064790249 0.02418000064790249 -0.12278344482183456 -0.9918477535247803 0.034090954810380936 0.014170000329613686 -0.7201099991798401
1.2587000131607056 -0.012179999612271786 0.01988999918103218 -0.00516014639288187 -0.9987483024597168 0.049751412123441696 0.45963001251220703 -0.7370200157165527
1.2584400177001953 -0.01988999918103218 -0.012179999612271786 -0.005070132203400135 -0.9987760186195374 0.04920128360390663 0.4589900076389313 -0.759850025177002
1.9025800228118896 -0.02418000064790249 -0.02418000064790249 -0.12308319658041 -0.9918157458305359 0.0339408814907074 0.01307000033557415 -0.7535799741744995
1.2587000131607056 -0.012179999612271786 0.01988999918103218 -0.00516014639288187 -0.9987483024597168 0.049751412123441696 0.01278000045567751 -0.3813999891281128
1.2584400177001953 -0.01988999918103218 -0.012179999612271786 -0.005070132203400135 -0.9987760186195374 0.04920128360390663 0.013089999556541443 -0.404229998588562
-0.029659999534487724 -0.027739999815821648 -0.027739999815821648 0.015720348805189133 0.08304183930158615 -0.9964221119880676 0.9056000113487244 -0.3914099931716919
-0.029659999534487724 0.027739999815821648 -0.027739999815821648 0.015720348805189133 0.08304183930158615 -0.9964221119880676 0.9062700271606445 -0.4296500086784363
0.6144199967384338 0.020999999716877937 -0.013500000350177288 0.008849993348121643 0.040279969573020935 -0.9991492629051208 0.45963001251220703 -0.4335100054740906
0.6144199967384338 -0.013500000350177288 -0.020999999716877937 0.008820007555186749 0.040250033140182495 -0.999150812625885 0.4594399929046631 -0.40900999307632446
1.2582999467849731 0.012179999612271786 -0.01988999918103218 -0.005070109851658344 -0.04929107055068016 -0.9987716674804688 0.01322999969124794 -0.42697998881340027
1.2584400177001953 -0.01988999918103218 -0.012179999612271786 -0.0051300255581736565 -0.04962024837732315 -0.9987549781799316 0.013089999556541443 -0.404229998588562
1.9025800228118896 -0.02418000064790249 0.02418000064790249 -0.01199014950543642 0.09534119069576263 0.995372474193573 0.014580000191926956 -0.8539900183677673
1.9025800228118896 0.02418000064790249 0.02418000064790249 -0.01199014950543642 0.09534119069576263 0.995372474193573 0.013279999606311321 -0.8205400109291077
1.2585500478744507 0.01988999918103218 0.012179999612271786 -0.0051000951789319515 0.04935091733932495 0.9987685680389404 0.4589099884033203 -0.8055199980735779
1.2587000131607056 -0.012179999612271786 0.01988999918103218 -0.005130056291818619 0.049500543624162674 0.9987609386444092 0.45963001251220703 -0.8283399939537048
1.2587000131607056 -0.012179999612271786 0.01988999918103218 -0.005130056291818619 0.049500543624162674 0.9987609386444092 0.01278000045567751 -0.472460001707077
1.2585500478744507 0.01988999918103218 0.012179999612271786 -0.0051000951789319515 0.04935091733932495 0.9987685680389404 0.013009999878704548 -0.44971999526023865
1.9319700002670288 -0.029659999534487724 -0.11708000302314758 -0.00021000197739340365 -0.01270011905580759 -0.9999194145202637 0.5631200075149536 -0.8795400261878967
1.9319700002670288 0.029659999534487724 -0.11708000302314758 -0.00021000197739340365 -0.01270011905580759 -0.9999194145202637 0.5633800029754639 -0.9206100106239319
1.9319700002670288 0.029659999534487724 0.11708000302314758 0.0002700025215744972 0.01270011905580759 0.9999194145202637 0.5632200241088867 -0.9461600184440613
1.9319700002670288 -0.029659999534487724 0.11708000302314758 0.0002700025215744972 0.01270011905580759 0.9999194145202637 0.5632200241088867 -0.9872199892997742
3 0 1 2
3 0 2 3
3 4 5 6
3 4 6 7
3 8 9 10
3 8 10 11
3 12 13 14
3 12 14 15
3 16 17 18
3 16 18 19
3 20 21 22
3 20 22 23
3 24 25 26
3 24 26 27
3 28 29 30
3 28 30 31
3 32 33 34
3 32 34 35
3 36 37 38
3 36 38 39
3 40 41 42
3 40 42 43
3 44 45 46
3 44 46 47
3 48 49 50
3 48 50 51
3 52 53 54
3 52 54 55
3 56 57 58
3 56 58 59
3 60 61 49
3 60 49 48
3 62 63 45
3 62 45 44
3 64 65 66
3 64 66 67
3 68 69 70
3 68 70 71
3 69 72 73
3 69 73 70
3 74 75 76
3 74 76 77
3 78 16 19
3 78 19 79
3 80 81 82
3 80 82 83
3 83 82 84
3 83 84 85
3 86 87 88
3 86 88 89
3 90 91 5
3 90 5 4
3 92 93 65
3 92 65 64
3 3 2 63
3 3 63 62
3 31 30 61
3 31 61 60
3 94 95 57
3 94 57 56
